<svg width="96" height="96" viewBox="0 0 96 96" fill="none" xmlns="http://www.w3.org/2000/svg">
<g id="budget 1">
<g id="Group">
<path id="Vector" d="M16.5 49.2825V52.5H19.5V49.2825C21.2325 48.7335 22.5 47.13 22.5 45.219C22.5 43.5885 21.594 42.12 20.133 41.3895L17.208 39.9285C16.7715 39.7095 16.5 39.27 16.5 38.781C16.5 38.0745 17.0745 37.5 17.781 37.5H18.219C18.9255 37.5 19.5 38.0745 19.5 38.781V39H22.5V38.781C22.5 36.87 21.2325 35.2665 19.5 34.7175V31.5H16.5V34.7175C14.7675 35.2665 13.5 36.87 13.5 38.781C13.5 40.4115 14.406 41.88 15.867 42.6105L18.792 44.0715C19.2285 44.2905 19.5 44.73 19.5 45.219C19.5 45.9255 18.9255 46.5 18.219 46.5H17.781C17.0745 46.5 16.5 45.9255 16.5 45.219V43.5H13.5V45.219C13.5 47.13 14.7675 48.7335 16.5 49.2825Z" fill="#242A78"/>
<path id="Vector_2" d="M18 58.5C27.0975 58.5 34.5 51.0975 34.5 42C34.5 41.589 34.4685 41.1855 34.4385 40.7805L39.5265 39.9315C40.4625 42.03 42.5595 43.5 45 43.5C48.309 43.5 51 40.809 51 37.5C51 36.954 50.9025 36.435 50.766 35.9325L61.7085 29.679C62.799 30.7995 64.317 31.5 66 31.5C69.309 31.5 72 28.809 72 25.5C72 24.39 71.6775 23.364 71.1495 22.4715L87 6.621V15H90V1.5H76.5V4.5H84.879L69.0285 20.3505C68.136 19.8225 67.11 19.5 66 19.5C62.691 19.5 60 22.191 60 25.5C60 26.046 60.0975 26.565 60.234 27.0675L49.2915 33.321C48.201 32.2005 46.683 31.5 45 31.5C41.8725 31.5 39.327 33.9135 39.054 36.9705L33.9435 37.8225C32.0865 30.744 25.653 25.5 18 25.5C8.9025 25.5 1.5 32.9025 1.5 42C1.5 51.0975 8.9025 58.5 18 58.5ZM66 22.5C67.6545 22.5 69 23.8455 69 25.5C69 27.1545 67.6545 28.5 66 28.5C64.3455 28.5 63 27.1545 63 25.5C63 23.8455 64.3455 22.5 66 22.5ZM45 34.5C46.6545 34.5 48 35.8455 48 37.5C48 39.1545 46.6545 40.5 45 40.5C43.3455 40.5 42 39.1545 42 37.5C42 35.8455 43.3455 34.5 45 34.5ZM18 28.5C25.443 28.5 31.5 34.557 31.5 42C31.5 49.443 25.443 55.5 18 55.5C10.557 55.5 4.5 49.443 4.5 42C4.5 34.557 10.557 28.5 18 28.5Z" fill="#242A78"/>
<path id="Vector_3" d="M4.5 94.5H19.5V61.5H4.5V94.5ZM7.5 64.5H16.5V91.5H7.5V64.5Z" fill="#242A78"/>
<path id="Vector_4" d="M22.5 94.5H37.5V64.5H22.5V94.5ZM25.5 67.5H34.5V91.5H25.5V67.5Z" fill="#242A78"/>
<path id="Vector_5" d="M40.5 94.5H55.5V46.5H40.5V94.5ZM43.5 49.5H52.5V91.5H43.5V49.5Z" fill="#242A78"/>
<path id="Vector_6" d="M81 70.7175V67.5H78V70.7175C76.2675 71.2665 75 72.87 75 74.781C75 76.4115 75.906 77.8785 77.367 78.6105L80.292 80.073C80.7285 80.2905 81 80.73 81 81.219C81 81.924 80.4255 82.5 79.719 82.5H79.281C78.5745 82.5 78 81.924 78 81.219V79.5H75V81.219C75 83.1315 76.2675 84.735 78 85.2825V88.5H81V85.2825C82.7325 84.7335 84 83.13 84 81.219C84 79.5885 83.094 78.1215 81.633 77.3895L78.708 75.927C78.2715 75.7095 78 75.27 78 74.781C78 74.076 78.5745 73.5 79.281 73.5H79.719C80.4255 73.5 81 74.076 81 74.781V75H84V74.781C84 72.87 82.7325 71.2665 81 70.7175Z" fill="#242A78"/>
<path id="Vector_7" d="M92.22 70.9215L87.126 62.7705L89.7915 53.442C89.9295 52.9545 90 52.452 90 51.948C90 48.9435 87.5565 46.5 84.5535 46.5H80.448C78.3285 46.5 76.509 47.7285 75.609 49.5H73.5V34.5H58.5V94.5H79.5C87.771 94.5 94.5 87.771 94.5 79.5V78.8715C94.5 76.056 93.711 73.308 92.22 70.9215ZM78 51.948C78 50.598 79.098 49.5 80.4465 49.5H84.552C85.902 49.5 87 50.598 87 51.948C87 52.1745 86.9685 52.401 86.9055 52.62L84.369 61.5H74.121L69.8025 57.1815C69.2925 56.67 69 55.965 69 55.242C69 53.73 70.23 52.5 71.7435 52.5H75V55.5H78V51.948ZM61.5 91.5V37.5H70.5V49.644C67.9305 50.214 66 52.5045 66 55.242C66 56.7765 66.597 58.218 67.683 59.3025L71.5965 63.216L66.7815 70.9215C65.289 73.308 64.5 76.056 64.5 78.8715V79.5C64.5 84.4095 66.882 88.7625 70.539 91.5H61.5ZM91.5 79.5C91.5 86.1165 86.1165 91.5 79.5 91.5C72.8835 91.5 67.5 86.1165 67.5 79.5V78.8715C67.5 76.62 68.13 74.421 69.324 72.513L74.331 64.5H84.669L89.676 72.513C90.87 74.421 91.5 76.62 91.5 78.8715V79.5Z" fill="#242A78"/>
</g>
</g>
</svg>
