<svg width="96" height="96" viewBox="0 0 96 96" fill="none" xmlns="http://www.w3.org/2000/svg">
<g id="sketch 1" clip-path="url(#clip0_238_91)">
<g id="Group">
<g id="Group_2">
<path id="Vector" d="M84.9441 67.748C84.4176 67.5298 83.8116 67.6503 83.4085 68.0533L68.0098 83.452C67.6069 83.8551 67.4863 84.4611 67.7046 84.9876C67.9225 85.5143 68.4366 85.8574 69.0064 85.8574H84.405C85.1834 85.8574 85.8141 85.2267 85.8141 84.4483V69.0497C85.8139 68.4798 85.4706 67.9661 84.9441 67.748ZM72.4076 83.0395L82.9956 72.4515V83.0395H72.4076Z" fill="#242A78"/>
</g>
</g>
<g id="Group_3">
<g id="Group_4">
<path id="Vector_2" d="M95.1304 45.1627C94.6039 44.9445 93.9979 45.065 93.5948 45.468L89.3747 49.688V20.9947C89.3747 20.2163 88.7437 19.5856 87.9656 19.5856H77.1392L81.0692 15.6556C81.0697 15.655 81.0703 15.6543 81.0709 15.6537L84.8576 11.867C85.6689 11.0556 86.1157 9.97639 86.1157 8.82889C86.1157 7.68139 85.6689 6.60251 84.8576 5.79082L80.4787 1.41194C79.6674 0.600622 78.5882 0.153809 77.4407 0.153809C76.2932 0.153809 75.2141 0.600622 74.4026 1.41194L70.614 5.20057L66.0359 9.77858L56.2291 19.5854H12.4913V5.64569C12.4913 4.86738 11.8603 4.23663 11.0822 4.23663C4.97157 4.237 0 9.2082 0 15.3192V75.1667C0 75.2708 0.012 75.372 0.0333751 75.4695C0.228 78.0625 1.34982 80.4717 3.22463 82.3005C5.22864 84.255 7.87408 85.3315 10.6738 85.3315H53.731L45.6218 93.4407C45.2189 93.8438 45.0983 94.4496 45.3164 94.9763C45.5345 95.5028 46.0484 95.8461 46.6182 95.8461H94.5911C95.3693 95.8461 96.0002 95.2154 96.0002 94.4371V46.4645C96.0002 45.8947 95.6567 45.3808 95.1304 45.1627ZM76.3957 3.40488C76.9717 2.8285 77.9102 2.8285 78.4862 3.40488L82.8652 7.78395C83.4416 8.36014 83.4416 9.2982 82.8652 9.87458L80.0732 12.6668L73.6033 6.19713L76.3957 3.40488ZM71.6105 8.18989L78.0802 14.6594L75.4948 17.2448L69.0255 10.7753L71.6105 8.18989ZM93.1824 62.2974H90.5827C89.8044 62.2974 89.1737 62.9282 89.1737 63.7065C89.1737 64.4848 89.8044 65.1156 90.5827 65.1156H93.1824V69.3617H90.5827C89.8044 69.3617 89.1737 69.9924 89.1737 70.7708C89.1737 71.5491 89.8044 72.1798 90.5827 72.1798H93.1824V76.4258H90.5827C89.8044 76.4258 89.1737 77.0565 89.1737 77.8348C89.1737 78.6132 89.8044 79.2439 90.5827 79.2439H93.1824V83.49H90.5827C89.8044 83.49 89.1737 84.121 89.1737 84.8991C89.1737 85.6774 89.8044 86.3082 90.5827 86.3082H93.1824V93.0286H50.0199L64.2526 78.796C64.8029 78.2455 64.8029 77.3535 64.2526 76.8032C64.1894 76.74 64.1216 76.6853 64.0505 76.6365C63.5019 76.2608 62.747 76.3161 62.2597 76.8032L56.5492 82.5137H10.674C6.40051 82.5137 2.96026 79.1773 2.82488 74.9115C2.83294 74.6438 2.85376 74.3783 2.88713 74.1158C2.88732 74.1143 2.88751 74.1128 2.88769 74.1113C2.90344 73.9866 2.92238 73.8624 2.94394 73.7391C2.94638 73.725 2.94901 73.711 2.95144 73.6969C2.97113 73.5868 2.99326 73.4773 3.01744 73.3682C3.02419 73.3378 3.03132 73.3075 3.03844 73.2773C3.05982 73.185 3.08288 73.0933 3.10763 73.002C3.12113 72.9525 3.13519 72.9036 3.14963 72.8543C3.17026 72.7826 3.19163 72.7112 3.21432 72.6405C3.23701 72.5698 3.26119 72.4999 3.28576 72.4299C3.30282 72.381 3.31969 72.3321 3.33807 72.2835C3.37238 72.1913 3.40876 72.1 3.44626 72.0094C3.45694 71.9833 3.46744 71.9569 3.47851 71.9308C3.52669 71.8183 3.57676 71.7071 3.62963 71.5973C3.63188 71.5926 3.63394 71.5879 3.63619 71.5832C4.73832 69.3024 6.85801 67.602 9.40183 67.0744C9.40896 67.0729 9.41608 67.0712 9.42321 67.0697C9.53983 67.0459 9.65758 67.0254 9.77608 67.0065C9.79577 67.0033 9.81546 66.9994 9.83552 66.9964C9.94258 66.9801 10.0508 66.9673 10.159 66.9551C10.1893 66.9518 10.2195 66.9471 10.2501 66.9441C10.3545 66.9336 10.4599 66.9266 10.5653 66.9201C10.5986 66.918 10.632 66.9144 10.6654 66.9128C10.8034 66.9058 10.9425 66.9023 11.0822 66.9023C11.8603 66.9023 12.4913 66.2715 12.4913 65.4932V55.2765C12.4913 54.4982 11.8603 53.8674 11.0822 53.8674C10.3041 53.8674 9.67315 54.4982 9.67315 55.2765V64.1728C7.29377 64.4737 5.0852 65.535 3.34369 67.2356C3.16051 67.4145 2.98688 67.6005 2.81776 67.7895V15.3192C2.81776 11.2428 5.78514 7.84582 9.67296 7.17495V20.9947V49.6404V49.6406C9.67296 50.4187 10.3039 51.0497 11.082 51.0497C11.8601 51.0497 12.4911 50.4187 12.4911 49.6406V49.6404V22.4037H53.4112L45.6217 30.1932C45.0713 30.7437 45.0713 31.6357 45.6217 32.186C46.172 32.7361 47.0641 32.7361 47.6142 32.186L57.8092 21.991C57.8096 21.9907 57.8097 21.9903 57.8101 21.9901L67.0323 12.7679L73.5016 19.2376L72.7426 19.9966C72.7421 19.9972 72.7413 19.9977 72.7408 19.9983L44.3292 48.4102L37.8597 41.9407L43.46 36.3404C44.0103 35.7899 44.0103 34.898 43.46 34.3477C42.9096 33.7976 42.0175 33.7976 41.4674 34.3477L34.8706 40.9443C34.8353 40.9796 34.8023 41.0169 34.7714 41.0551C34.7611 41.0679 34.7519 41.0816 34.7421 41.0949C34.7223 41.1213 34.7028 41.1479 34.6846 41.1757C34.6743 41.1918 34.6649 41.2083 34.6551 41.225C34.6396 41.2513 34.6246 41.2779 34.6109 41.3051C34.6019 41.3227 34.5938 41.3405 34.5856 41.3589C34.573 41.3865 34.5614 41.4146 34.5507 41.4427C34.5469 41.4526 34.5421 41.462 34.5385 41.472L31.7933 49.2485L29.9217 54.5509C29.8969 54.6214 29.8791 54.693 29.8658 54.7652H25.1798C24.4017 54.7652 23.7707 55.3959 23.7707 56.1742C23.7707 56.9525 24.4017 57.5833 25.1798 57.5833H64.2013C64.9796 57.5833 65.6103 56.9525 65.6103 56.1742C65.6103 55.3959 64.9796 54.7652 64.2013 54.7652H36.205L44.7982 51.7318C44.8053 51.7292 44.812 51.7256 44.8192 51.723C44.8525 51.7106 44.8853 51.6967 44.9178 51.6819C44.9307 51.6759 44.9437 51.6703 44.9562 51.6641C44.99 51.6472 45.0232 51.6287 45.0558 51.6088C45.0663 51.6024 45.0772 51.5966 45.0875 51.59C45.1214 51.5683 45.1544 51.5445 45.1868 51.5193C45.1949 51.5132 45.2033 51.5077 45.2112 51.5013C45.2504 51.4698 45.2888 51.4359 45.3252 51.3995L74.321 22.4039H86.5564V52.5063L66.4008 72.6621C65.8505 73.2126 65.8505 74.1045 66.4008 74.6548C66.4351 74.6891 66.471 74.7214 66.5079 74.7516C66.7663 74.9621 67.0818 75.0675 67.3972 75.0675C67.7126 75.0675 68.0283 74.9621 68.2865 74.7516C68.3235 74.7216 68.3593 74.6891 68.3936 74.6548C68.3941 74.6543 68.3936 74.6548 68.3941 74.6543L93.1824 49.8658V62.2974ZM41.752 49.8182L37.7159 51.243L35.0268 48.5538L36.4516 44.5177L41.752 49.8182Z" fill="#242A78"/>
</g>
</g>
</g>
<defs>
<clipPath id="clip0_238_91">
<rect width="96" height="96" fill="white"/>
</clipPath>
</defs>
</svg>
