<svg width="96" height="96" viewBox="0 0 96 96" fill="none" xmlns="http://www.w3.org/2000/svg">
<g id="guarantee-certificate 1" clip-path="url(#clip0_238_5)">
<g id="Group">
<g id="Group_2">
<path id="Vector" d="M63.9999 52.7998C58.7055 52.7998 54.3999 57.1054 54.3999 62.3998C54.3999 67.6942 58.7055 71.9998 63.9999 71.9998C69.2943 71.9998 73.5999 67.6942 73.5999 62.3998C73.5999 57.1054 69.2943 52.7998 63.9999 52.7998ZM63.9999 68.7997C60.4702 68.7997 57.6 65.9293 57.6 62.3998C57.6 58.8701 60.4704 55.9999 63.9999 55.9999C67.5296 55.9999 70.3998 58.8703 70.3998 62.3998C70.4 65.9295 67.5296 68.7997 63.9999 68.7997Z" fill="#242A78"/>
</g>
</g>
<g id="Group_3">
<g id="Group_4">
<path id="Vector_2" d="M67.2001 68.7998V75.4111L64.8865 73.8687C64.349 73.5087 63.6498 73.5087 63.112 73.8687L60.8 75.4111V68.7998H57.6001V78.3998C57.6001 78.9902 57.9248 79.5327 58.4465 79.8109C58.9649 80.0894 59.5985 80.0573 60.088 79.7309L64 77.1229L67.912 79.7309C68.1792 79.9084 68.4897 79.9997 68.8 79.9997C69.0592 79.9997 69.3185 79.9373 69.5553 79.8109C70.0752 79.5325 70.4002 78.9901 70.4002 78.3998V68.7998H67.2001Z" fill="#242A78"/>
</g>
</g>
<g id="Group_5">
<g id="Group_6">
<path id="Vector_3" d="M57.5997 16H36.7998V19.2001H57.5997V16Z" fill="#242A78"/>
</g>
</g>
<g id="Group_7">
<g id="Group_8">
<path id="Vector_4" d="M73.6 25.5996H22.3999V28.7997H73.6V25.5996Z" fill="#242A78"/>
</g>
</g>
<g id="Group_9">
<g id="Group_10">
<path id="Vector_5" d="M57.5998 35.2002H22.3999V38.4003H57.5998V35.2002Z" fill="#242A78"/>
</g>
</g>
<g id="Group_11">
<g id="Group_12">
<path id="Vector_6" d="M73.6 35.2002H64V38.4003H73.6V35.2002Z" fill="#242A78"/>
</g>
</g>
<g id="Group_13">
<g id="Group_14">
<path id="Vector_7" d="M73.6 44.7998H22.3999V47.9999H73.6V44.7998Z" fill="#242A78"/>
</g>
</g>
<g id="Group_15">
<g id="Group_16">
<path id="Vector_8" d="M41.5999 54.3999H22.3999V57.6H41.5999V54.3999Z" fill="#242A78"/>
</g>
</g>
<g id="Group_17">
<g id="Group_18">
<path id="Vector_9" d="M30.4 62.4004H22.3999V65.6005H30.4V62.4004Z" fill="#242A78"/>
</g>
</g>
<g id="Group_19">
<g id="Group_20">
<path id="Vector_10" d="M41.5998 62.4004H36.7998V65.6005H41.5998V62.4004Z" fill="#242A78"/>
</g>
</g>
<g id="Group_21">
<g id="Group_22">
<path id="Vector_11" d="M88.0001 0C83.5889 0 80 3.58875 80 8.00006V11.2001C80 12.0833 80.7151 12.8001 81.5999 12.8001H94.4C95.2848 12.8001 95.9999 12.0833 95.9999 11.2001V8.00006C96.0001 3.58875 92.4114 0 88.0001 0ZM92.8001 9.6H83.2001V8.00006C83.2001 5.35369 85.3537 3.20006 88.0001 3.20006C90.6464 3.20006 92.8001 5.35369 92.8001 8.00006V9.6Z" fill="#242A78"/>
</g>
</g>
<g id="Group_23">
<g id="Group_24">
<path id="Vector_12" d="M87.9997 0H20.7997C16.3886 0 12.7998 3.58875 12.7998 8.00006V84.8001H15.9999V8.00006C15.9999 5.35369 18.1535 3.20006 20.7999 3.20006H81.6031C80.5968 4.53769 80 6.20006 80 8.00006V88.0001C80 90.6465 77.8464 92.8001 75.2 92.8001H14.3997V96H75.1998C79.6109 96 83.1999 92.4113 83.1999 87.9999V8.00006C83.1999 5.35369 85.3535 3.20006 87.9999 3.20006C88.8847 3.20006 89.5998 2.48325 89.5998 1.60013C89.5998 0.717 88.8845 0 87.9997 0Z" fill="#242A78"/>
</g>
</g>
<g id="Group_25">
<g id="Group_26">
<path id="Vector_13" d="M75.2001 92.8002C72.5537 92.8002 70.4001 90.6466 70.4001 88.0002V84.8001C70.4001 83.9153 69.6849 83.2002 68.8001 83.2002H1.59994C0.716812 83.2002 0 83.9153 0 84.8001V88.0002C0 92.4115 3.58875 96.0003 8.00006 96.0003H75.2001C76.0849 96.0003 76.8 95.2851 76.8 94.4003C76.8 93.5155 76.0849 92.8002 75.2001 92.8002ZM8.00006 92.8002C5.35369 92.8002 3.20006 90.6466 3.20006 88.0002V86.4003H67.2V88.0002C67.2 89.8002 67.7968 91.4626 68.8031 92.8002H8.00006Z" fill="#242A78"/>
</g>
</g>
</g>
<defs>
<clipPath id="clip0_238_5">
<rect width="96" height="96" fill="white"/>
</clipPath>
</defs>
</svg>
