<svg width="96" height="96" viewBox="0 0 96 96" fill="none" xmlns="http://www.w3.org/2000/svg">
<g id="hook 1" clip-path="url(#clip0_238_113)">
<path id="Vector" d="M27.2 54.3999H30.4V57.5999H27.2V54.3999Z" fill="#242A78"/>
<path id="Vector_2" d="M33.5999 54.3999H36.7999V57.5999H33.5999V54.3999Z" fill="#242A78"/>
<path id="Vector_3" d="M39.9998 54.3999H43.1998V57.5999H39.9998V54.3999Z" fill="#242A78"/>
<path id="Vector_4" d="M27.2 60.7998H30.4V63.9998H27.2V60.7998Z" fill="#242A78"/>
<path id="Vector_5" d="M33.5999 60.7998H36.7999V63.9998H33.5999V60.7998Z" fill="#242A78"/>
<path id="Vector_6" d="M39.9998 60.7998H43.1998V63.9998H39.9998V60.7998Z" fill="#242A78"/>
<path id="Vector_7" d="M46.3997 60.7998H49.5996V63.9998H46.3997V60.7998Z" fill="#242A78"/>
<path id="Vector_8" d="M52.7996 60.7998H55.9996V63.9998H52.7996V60.7998Z" fill="#242A78"/>
<path id="Vector_9" d="M27.2 67.2002H30.4V70.4002H27.2V67.2002Z" fill="#242A78"/>
<path id="Vector_10" d="M33.5999 67.1997H36.7999V70.3997H33.5999V67.1997Z" fill="#242A78"/>
<path id="Vector_11" d="M39.9998 67.1997H43.1998V70.3997H39.9998V67.1997Z" fill="#242A78"/>
<path id="Vector_12" d="M46.3997 67.1997H49.5996V70.3997H46.3997V67.1997Z" fill="#242A78"/>
<path id="Vector_13" d="M52.7996 67.1997H55.9996V70.3997H52.7996V67.1997Z" fill="#242A78"/>
<path id="Vector_14" d="M27.2 73.6001H30.4V76.8001H27.2V73.6001Z" fill="#242A78"/>
<path id="Vector_15" d="M33.5999 73.6001H36.7999V76.8001H33.5999V73.6001Z" fill="#242A78"/>
<path id="Vector_16" d="M39.9998 73.6001H43.1998V76.8001H39.9998V73.6001Z" fill="#242A78"/>
<path id="Vector_17" d="M46.3997 73.6001H49.5996V76.8001H46.3997V73.6001Z" fill="#242A78"/>
<path id="Vector_18" d="M52.7996 73.6001H55.9996V76.8001H52.7996V73.6001Z" fill="#242A78"/>
<path id="Vector_19" d="M27.1997 79.9995H30.3997V83.1995H27.1997V79.9995Z" fill="#242A78"/>
<path id="Vector_20" d="M33.5999 79.9995H36.7999V83.1995H33.5999V79.9995Z" fill="#242A78"/>
<path id="Vector_21" d="M39.9998 79.9995H43.1998V83.1995H39.9998V79.9995Z" fill="#242A78"/>
<path id="Vector_22" d="M46.3997 79.9995H49.5996V83.1995H46.3997V79.9995Z" fill="#242A78"/>
<path id="Vector_23" d="M52.7996 79.9995H55.9996V83.1995H52.7996V79.9995Z" fill="#242A78"/>
<path id="Vector_24" d="M27.1997 86.3999H30.3997V89.5999H27.1997V86.3999Z" fill="#242A78"/>
<path id="Vector_25" d="M33.5999 86.3999H36.7999V89.5999H33.5999V86.3999Z" fill="#242A78"/>
<path id="Vector_26" d="M39.9998 86.3999H43.1998V89.5999H39.9998V86.3999Z" fill="#242A78"/>
<path id="Vector_27" d="M46.3997 86.3999H49.5996V89.5999H46.3997V86.3999Z" fill="#242A78"/>
<path id="Vector_28" d="M52.7996 86.3999H55.9996V89.5999H52.7996V86.3999Z" fill="#242A78"/>
<path id="Vector_29" d="M94.3993 4.79997H83.1994V1.59999C83.1994 0.716401 82.483 0 81.5994 0H65.5995C64.7159 0 63.9995 0.716401 63.9995 1.59999V4.79997H1.59999C0.716401 4.79997 0 5.51637 0 6.39995V12.7999C0 13.6843 0.716401 14.3999 1.59999 14.3999H6.39995V44.7997C6.39995 45.684 7.11635 46.3997 7.99994 46.3997C8.88353 46.3997 9.59993 47.1161 9.59993 47.9997C9.59993 48.884 8.88353 49.5996 7.99994 49.5996C7.11635 49.5996 6.39995 48.884 6.39995 47.9997H3.19998C3.20466 49.1707 3.63982 50.2996 4.42419 51.1699L0.32031 56.6402L0.340622 56.6558C0.126561 56.9246 0.00703119 57.2566 0 57.5996V63.9995C0 64.4245 0.168749 64.8308 0.468747 65.1308L3.66872 68.3308C3.96872 68.6308 4.37575 68.7995 4.79996 68.7995H11.1999C11.6241 68.7995 12.0312 68.6308 12.3312 68.3308L15.5311 65.1308C15.8311 64.8308 15.9999 64.4245 15.9999 63.9995V57.5996C15.9929 57.2566 15.8733 56.9246 15.6593 56.6558L15.6796 56.6402L11.5757 51.1699C12.6444 49.9825 13.0476 48.3387 12.6499 46.7919C12.253 45.245 11.1077 43.9997 9.59993 43.4739V14.3999H63.9995V15.9999C63.9995 16.8843 64.7159 17.5999 65.5995 17.5999H68.7995V92.7993H62.3995V28.7998H59.1996V35.1997H49.5996V31.9998H46.3997V35.1997H36.7997V33.5998H33.5998V35.1997H23.9998V30.3998H44.7997V27.1998H23.9998V20.7999H20.7998V92.7993H18.2624L10.7312 85.2689C10.1062 84.6439 9.09368 84.6439 8.46869 85.2689L0.937493 92.7993H0V95.9993H95.9993V92.7993H94.7516C95.8774 91.5704 96.2774 89.8408 95.8055 88.2416C95.3344 86.6431 94.0602 85.4072 92.447 84.9853C93.2602 82.9799 92.6321 80.6791 90.9118 79.3658C89.1923 78.0526 86.8064 78.0526 85.0869 79.3658C83.3666 80.6791 82.7384 82.9799 83.5517 84.9853C81.9385 85.4072 80.6642 86.6431 80.1932 88.2416C79.7213 89.8408 80.1213 91.5704 81.2471 92.7993H78.3994V17.5999H81.5994C82.483 17.5999 83.1994 16.8843 83.1994 15.9999V14.3999H94.3993C95.2829 14.3999 95.9993 13.6843 95.9993 12.7999V6.39995C95.9993 5.51637 95.2829 4.79997 94.3993 4.79997ZM8.79993 52.7996L11.1999 55.9996H4.79996L7.19995 52.7996H8.79993ZM12.7999 63.3378L10.5374 65.5995H5.46246L3.19998 63.3378V59.1996H12.7999V63.3378ZM87.5197 7.99994L83.1994 10.8804V7.99994H87.5197ZM67.1995 3.19998H73.5994V9.59993H67.1995V3.19998ZM23.9998 8.32025L28.3201 11.1999H19.6795L23.9998 8.32025ZM14.3999 10.8804L10.0796 7.99994H18.7202L14.3999 10.8804ZM29.2795 7.99994H37.92L33.5998 10.8804L29.2795 7.99994ZM43.1997 8.32025L47.52 11.1999H38.8794L43.1997 8.32025ZM48.4793 7.99994H57.1199L52.7996 10.8804L48.4793 7.99994ZM3.19998 7.99994H4.32028L9.12024 11.1999H3.19998V7.99994ZM58.0793 11.1999L62.8792 7.99994H63.9995V11.1999H58.0793ZM75.1994 87.5197L72.3198 83.1994L75.1994 78.8799V87.5197ZM75.1994 49.12L72.3198 44.7997L75.1994 40.4802V49.12ZM71.9995 50.0801L74.8791 54.3996L71.9995 58.7199V50.0801ZM71.9995 39.52V30.8802L74.8791 35.1997L71.9995 39.52ZM71.9995 69.28L74.8791 73.5995L71.9995 77.9198V69.28ZM75.1994 68.3104L72.3198 63.9995L75.1994 59.68V68.3104ZM72.3198 25.5998L75.1994 21.2803V29.9201L72.3198 25.5998ZM71.9995 20.3202V17.5999H73.8104L71.9995 20.3202ZM59.1996 38.3997V54.3996H49.5996V38.3997H59.1996ZM46.3997 38.3997V52.1598L42.72 48.5231C42.4216 48.2286 42.0192 48.0622 41.5997 48.0606H36.7997V38.3997H46.3997ZM33.5998 38.3997V41.0669H23.9998V38.3997H33.5998ZM9.59993 88.6619L13.7374 92.7993H5.46246L9.59993 88.6619ZM23.9998 92.7993V44.2669H33.5998V49.6668C33.5998 50.5512 34.3162 51.2668 35.1997 51.2668H40.9419L46.8793 57.1379C47.1778 57.4324 47.5801 57.5988 47.9996 57.5996H59.1996V92.7993H23.9998ZM71.9995 88.4798L74.8791 92.7993H71.9995V88.4798ZM91.1993 91.1993C90.3157 91.1993 89.5993 90.4837 89.5993 89.5994C89.5993 88.7158 90.3157 87.9994 91.1993 87.9994C92.0829 87.9994 92.7993 88.7158 92.7993 89.5994C92.7993 90.4837 92.0829 91.1993 91.1993 91.1993ZM87.9993 81.5994C88.8829 81.5994 89.5993 82.3158 89.5993 83.1994C89.5993 84.0838 88.8829 84.7994 87.9993 84.7994C87.1158 84.7994 86.3994 84.0838 86.3994 83.1994C86.3994 82.3158 87.1158 81.5994 87.9993 81.5994ZM84.7994 87.9994C85.683 87.9994 86.3994 88.7158 86.3994 89.5994C86.3994 90.4837 85.683 91.1993 84.7994 91.1993C83.9158 91.1993 83.1994 90.4837 83.1994 89.5994C83.1994 88.7158 83.9158 87.9994 84.7994 87.9994ZM79.9994 14.3999H67.1995V12.7999H75.1994C76.083 12.7999 76.7994 12.0843 76.7994 11.1999V3.19998H79.9994V14.3999ZM88.479 11.1999L92.7993 8.32025V11.1999H88.479Z" fill="#242A78"/>
</g>
<defs>
<clipPath id="clip0_238_113">
<rect width="96" height="96" fill="white"/>
</clipPath>
</defs>
</svg>
