<svg width="32" height="32" viewBox="0 0 32 32" fill="none" xmlns="http://www.w3.org/2000/svg">
<g clip-path="url(#clip0_152_215)">
<path d="M9.49023 24H15.0352V17.957H13.043V15.9648H15.0352V13.4746C15.0352 12.1015 16.1523 10.9844 17.5254 10.9844H20.0156V12.9766H18.0234C17.4742 12.9766 17.0273 13.4234 17.0273 13.9727V15.9648H19.9257L19.5937 17.957H17.0273V24H21.5098C22.8829 24 24 22.8829 24 21.5098V9.49023C24 8.1171 22.8829 7 21.5098 7H9.49023C8.1171 7 7 8.1171 7 9.49023V21.5098C7 22.8829 8.1171 24 9.49023 24ZM7.99609 9.49023C7.99609 8.66638 8.66638 7.99609 9.49023 7.99609H21.5098C22.3336 7.99609 23.0039 8.66638 23.0039 9.49023V21.5098C23.0039 22.3336 22.3336 23.0039 21.5098 23.0039H18.0234V18.9531H20.4375L21.1016 14.9688H18.0234V13.9727H21.0117V9.98828H17.5254C15.603 9.98828 14.0391 11.5522 14.0391 13.4746V14.9688H12.0469V18.9531H14.0391V23.0039H9.49023C8.66638 23.0039 7.99609 22.3336 7.99609 21.5098V9.49023Z" fill="white"/>
</g>
<path opacity="0.07" fill-rule="evenodd" clip-rule="evenodd" d="M0 16C0 7.16344 7.16344 0 16 0C24.8366 0 32 7.16344 32 16C32 24.8366 24.8366 32 16 32C7.16344 32 0 24.8366 0 16Z" fill="white"/>
<defs>
<clipPath id="clip0_152_215">
<rect width="17" height="17" fill="white" transform="translate(7 7)"/>
</clipPath>
</defs>
</svg>
