<svg width="79" height="113" viewBox="0 0 79 113" fill="none" xmlns="http://www.w3.org/2000/svg">
<g id="Group 8">
<g id="Group">
<g id="Group_2">
<g id="Group_3">
<path id="Vector" d="M0 90.5288C8.67306 90.5288 16.5079 85.3511 19.9142 77.3736L32.5463 47.7698L19.8488 44.2685L0 90.5288Z" fill="white"/>
<path id="Vector_2" d="M27.8743 66.008L21.8882 79.8706L54.5771 69.9492L57.3948 76.4644C61.0864 85.0007 69.4979 90.5292 78.8011 90.5292L62.8995 55.938L27.8743 66.008Z" fill="white"/>
<path id="Vector_3" d="M21.1621 41.4452L61.8762 53.7504L56.3299 40.1791L38.2348 34.7814L38.96 33.0753C43.4422 22.506 43.4422 10.5694 38.966 0L21.1621 41.4452Z" fill="white"/>
</g>
<g id="Group_4">
<path id="Vector_4" d="M2.8058 98.7025C1.27805 98.7025 0.0356445 99.9389 0.0356445 101.473H10.2127C11.7404 101.473 12.9828 100.236 12.9828 98.7025H2.8058Z" fill="white"/>
<path id="Vector_5" d="M76.0008 98.7028C77.5285 98.7028 78.7709 99.9393 78.7709 101.473H68.5939C67.0661 101.473 65.8237 100.236 65.8237 98.7028H76.0008Z" fill="white"/>
</g>
<g id="Group_5">
<path id="Vector_6" d="M18.9931 95.6002H18.892L14.7368 105.177C15.8187 105.177 16.7996 104.523 17.2157 103.524L18.8504 99.6009L20.2771 103.221C20.7408 104.404 21.8821 105.177 23.1543 105.177L18.9931 95.6002Z" fill="white"/>
<path id="Vector_7" d="M23.1113 95.9621H27.5697C28.5387 95.9621 29.3234 96.7468 29.3234 97.7158H27.0823V103.363C27.0823 104.368 26.2679 105.176 25.2692 105.176V97.7158H24.8709C23.896 97.7158 23.1113 96.9311 23.1113 95.9621Z" fill="white"/>
<path id="Vector_8" d="M31.0723 95.9621C32.0769 95.9621 32.8853 96.7765 32.8853 97.7752V103.423H35.4653C36.4342 103.423 37.2189 104.207 37.2189 105.176H31.0723V95.9621Z" fill="white"/>
<path id="Vector_9" d="M42.3129 95.5994H42.2119L38.0566 105.176C39.1385 105.176 40.1194 104.522 40.5355 103.523L42.1703 99.6001L43.5969 103.22C44.0606 104.403 45.202 105.176 46.4741 105.176L42.3129 95.5994Z" fill="white"/>
<path id="Vector_10" d="M54.2793 95.962L54.3149 101.514L47.8829 95.5994H47.8057V103.333C47.8057 104.35 48.632 105.176 49.6485 105.176L49.6128 99.7309L56.0567 105.551H56.1042V97.787C56.1102 96.7824 55.2898 95.962 54.2793 95.962Z" fill="white"/>
<path id="Vector_11" d="M57.8638 95.9621H62.3222C63.2911 95.9621 64.0758 96.7468 64.0758 97.7158H61.8347V103.363C61.8347 104.368 61.0203 105.176 60.0216 105.176V97.7158H59.6234C58.6485 97.7158 57.8638 96.9311 57.8638 95.9621Z" fill="white"/>
</g>
</g>
<g id="Group_6">
<path id="Vector_12" d="M16.5199 111.598C16.3178 111.853 15.973 111.99 15.6104 111.99C14.8555 111.99 14.3442 111.502 14.3442 110.753C14.3442 110.064 14.8495 109.517 15.545 109.517C15.9255 109.517 16.2584 109.606 16.4783 109.826L16.2822 110.159C16.08 109.975 15.8482 109.909 15.6045 109.909C15.1765 109.909 14.796 110.254 14.796 110.753C14.796 111.277 15.1824 111.598 15.6461 111.598C15.9314 111.598 16.1692 111.473 16.3238 111.294L16.5199 111.598Z" fill="white"/>
<path id="Vector_13" d="M18.0415 109.522C18.7964 109.522 19.3017 110.051 19.3017 110.759C19.3017 111.466 18.7964 111.995 18.0415 111.995C17.2865 111.995 16.7812 111.466 16.7812 110.759C16.7812 110.045 17.2865 109.522 18.0415 109.522ZM18.0415 111.597C18.5171 111.597 18.8559 111.258 18.8559 110.753C18.8559 110.259 18.5111 109.909 18.0415 109.909C17.5778 109.909 17.2271 110.254 17.2271 110.753C17.2271 111.252 17.5719 111.597 18.0415 111.597Z" fill="white"/>
<path id="Vector_14" d="M19.9141 109.576H20.3361V109.868C20.4966 109.689 20.7998 109.535 21.1089 109.535C21.7271 109.535 22.0957 109.832 22.0957 110.575V111.942H21.6736V110.652C21.6736 110.159 21.4477 109.927 21.0079 109.927C20.7403 109.927 20.4907 110.058 20.3421 110.23V111.942H19.92V109.576H19.9141Z" fill="white"/>
<path id="Vector_15" d="M22.7198 110.188C22.7198 109.772 23.0586 109.522 23.5223 109.522C23.9146 109.522 24.194 109.665 24.3367 109.802L24.1346 110.123C23.9919 109.998 23.7898 109.891 23.5401 109.891C23.3023 109.891 23.1597 110.028 23.1597 110.188C23.1597 110.688 24.4377 110.45 24.4377 111.282C24.4377 111.781 23.9978 111.995 23.5223 111.995C23.1359 111.995 22.7614 111.793 22.6484 111.627L22.8862 111.33C23.0229 111.49 23.3321 111.627 23.5698 111.627C23.7898 111.627 23.9919 111.514 23.9919 111.3C23.9979 110.818 22.7198 111.056 22.7198 110.188Z" fill="white"/>
<path id="Vector_16" d="M25.0088 108.917H25.4309V109.576H26.2988V109.969H25.4309V110.997C25.4309 111.372 25.5497 111.586 25.8529 111.586C26.0134 111.586 26.1442 111.52 26.2274 111.455L26.3582 111.782C26.2334 111.889 26.0134 111.984 25.7519 111.984C25.2228 111.984 25.0088 111.645 25.0088 111.045V108.917Z" fill="white"/>
<path id="Vector_17" d="M26.9229 109.576H27.3449V109.856C27.4638 109.677 27.6421 109.535 27.9394 109.535C28.1355 109.535 28.2306 109.564 28.3079 109.624L28.1593 110.016C28.0464 109.945 27.981 109.927 27.8383 109.927C27.5649 109.927 27.4341 110.088 27.3449 110.266V111.942H26.9229V109.576Z" fill="white"/>
<path id="Vector_18" d="M30.7933 111.942H30.3712V111.603C30.2107 111.805 29.9075 111.995 29.533 111.995C29.004 111.995 28.6592 111.68 28.6592 110.984V109.576H29.0812V110.889C29.0812 111.335 29.2596 111.603 29.6935 111.603C29.967 111.603 30.2226 111.442 30.3712 111.252V109.582H30.7933V111.942Z" fill="white"/>
<path id="Vector_19" d="M33.5751 111.598C33.373 111.853 33.0282 111.99 32.6656 111.99C31.9106 111.99 31.3994 111.502 31.3994 110.753C31.3994 110.064 31.9047 109.517 32.6002 109.517C32.9807 109.517 33.3136 109.606 33.5335 109.826L33.3373 110.159C33.1352 109.975 32.9034 109.909 32.6597 109.909C32.2317 109.909 31.8512 110.254 31.8512 110.753C31.8512 111.277 32.2376 111.598 32.7013 111.598C32.9866 111.598 33.2244 111.473 33.3789 111.294L33.5751 111.598Z" fill="white"/>
<path id="Vector_20" d="M34.0679 108.917H34.4899V109.576H35.3578V109.969H34.4899V110.997C34.4899 111.372 34.6088 111.586 34.912 111.586C35.0725 111.586 35.2033 111.52 35.2865 111.455L35.4173 111.782C35.2924 111.889 35.0725 111.984 34.8109 111.984C34.2819 111.984 34.0679 111.645 34.0679 111.045V108.917Z" fill="white"/>
<path id="Vector_21" d="M36.3149 108.429C36.4457 108.429 36.5706 108.53 36.5706 108.679C36.5706 108.851 36.4457 108.952 36.3149 108.952C36.1663 108.952 36.0415 108.851 36.0415 108.679C36.0415 108.53 36.1663 108.429 36.3149 108.429ZM36.095 109.576H36.5171V111.942H36.095V109.576Z" fill="white"/>
<path id="Vector_22" d="M38.4966 109.522C39.2516 109.522 39.7569 110.051 39.7569 110.759C39.7569 111.466 39.2516 111.995 38.4966 111.995C37.7417 111.995 37.2364 111.466 37.2364 110.759C37.2304 110.045 37.7357 109.522 38.4966 109.522ZM38.4966 111.597C38.9722 111.597 39.311 111.258 39.311 110.753C39.311 110.259 38.9662 109.909 38.4966 109.909C38.0329 109.909 37.6822 110.254 37.6822 110.753C37.6763 111.252 38.0211 111.597 38.4966 111.597Z" fill="white"/>
<path id="Vector_23" d="M40.3633 109.576H40.7853V109.868C40.9458 109.689 41.249 109.535 41.5581 109.535C42.1764 109.535 42.5449 109.832 42.5449 110.575V111.942H42.1229V110.652C42.1229 110.159 41.897 109.927 41.4571 109.927C41.1896 109.927 40.9399 110.058 40.7913 110.23V111.942H40.3692V109.576H40.3633Z" fill="white"/>
<path id="Vector_24" d="M46.4569 111.598C46.2548 111.853 45.9101 111.99 45.5474 111.99C44.7925 111.99 44.2812 111.502 44.2812 110.753C44.2812 110.064 44.7865 109.517 45.482 109.517C45.8625 109.517 46.1954 109.606 46.4153 109.826L46.2192 110.159C46.0171 109.975 45.7852 109.909 45.5415 109.909C45.1135 109.909 44.733 110.254 44.733 110.753C44.733 111.277 45.1194 111.598 45.5831 111.598C45.8684 111.598 46.1062 111.473 46.2608 111.294L46.4569 111.598Z" fill="white"/>
<path id="Vector_25" d="M47.9844 109.522C48.7394 109.522 49.2447 110.051 49.2447 110.759C49.2447 111.466 48.7394 111.995 47.9844 111.995C47.2295 111.995 46.7242 111.466 46.7242 110.759C46.7182 110.045 47.2235 109.522 47.9844 109.522ZM47.9844 111.597C48.46 111.597 48.7988 111.258 48.7988 110.753C48.7988 110.259 48.454 109.909 47.9844 109.909C47.5207 109.909 47.17 110.254 47.17 110.753C47.17 111.252 47.5089 111.597 47.9844 111.597Z" fill="white"/>
<path id="Vector_26" d="M53.3643 111.942H52.9422V110.503C52.9422 110.111 52.7758 109.927 52.431 109.927C52.1457 109.927 51.9198 110.075 51.8128 110.272C51.8187 110.313 51.8187 110.385 51.8187 110.438V111.942H51.3966V110.414C51.3966 110.123 51.2243 109.927 50.8914 109.927C50.6179 109.927 50.392 110.075 50.2731 110.248V111.942H49.8511V109.576H50.2731V109.873C50.4455 109.665 50.7546 109.529 51.0578 109.529C51.4264 109.529 51.682 109.689 51.7712 109.939C51.9376 109.695 52.2467 109.529 52.6034 109.529C53.0373 109.529 53.3643 109.737 53.3643 110.385V111.942Z" fill="white"/>
<path id="Vector_27" d="M54.0776 109.576H54.4997V109.855C54.6602 109.665 54.9812 109.522 55.3022 109.522C55.9739 109.522 56.396 110.022 56.396 110.723C56.396 111.442 55.9086 111.995 55.1655 111.995C54.9158 111.995 54.6661 111.942 54.4997 111.835V113H54.0776V109.576ZM54.4997 110.242V111.413C54.7078 111.555 54.9039 111.597 55.1298 111.597C55.6351 111.597 55.9502 111.234 55.9502 110.735C55.9502 110.254 55.6708 109.915 55.1833 109.915C54.9039 109.915 54.6483 110.057 54.4997 110.242Z" fill="white"/>
<path id="Vector_28" d="M57.0201 109.736C57.2282 109.606 57.5135 109.522 57.8108 109.522C58.4825 109.522 58.7203 109.873 58.7203 110.491V111.942H58.322V111.639C58.1793 111.817 57.9534 111.983 57.567 111.983C57.1331 111.983 56.8418 111.71 56.8418 111.252C56.8418 110.771 57.2282 110.497 57.7335 110.497C57.9178 110.497 58.1674 110.533 58.322 110.652C58.322 110.212 58.2506 109.903 57.787 109.903C57.4957 109.903 57.3233 109.974 57.1331 110.075L57.0201 109.736ZM58.322 111.294V110.997C58.1734 110.89 57.995 110.836 57.7929 110.836C57.5433 110.836 57.2876 110.949 57.2876 111.228C57.2876 111.454 57.4422 111.603 57.7156 111.603C58.0188 111.597 58.1972 111.437 58.322 111.294Z" fill="white"/>
<path id="Vector_29" d="M59.4277 109.576H59.8498V109.868C60.0103 109.689 60.3135 109.535 60.6226 109.535C61.2408 109.535 61.6094 109.832 61.6094 110.575V111.942H61.1873V110.652C61.1873 110.159 60.9614 109.927 60.5215 109.927C60.254 109.927 60.0044 110.058 59.8557 110.23V111.942H59.4337V109.576H59.4277Z" fill="white"/>
<path id="Vector_30" d="M63.5175 111.942C63.1727 112.792 62.9468 112.994 62.6139 112.994C62.4356 112.994 62.2929 112.928 62.1681 112.845L62.3048 112.524C62.3821 112.56 62.4713 112.601 62.5664 112.601C62.7685 112.601 62.9111 112.441 63.0716 112.066L63.1252 111.942L61.9897 109.576H62.495L63.1905 111.08C63.244 111.198 63.2856 111.317 63.3332 111.436C63.3629 111.323 63.4045 111.198 63.4462 111.074L63.993 109.576H64.4746L63.5175 111.942Z" fill="white"/>
</g>
</g>
</g>
</svg>
