<svg width="167" height="65" viewBox="0 0 167 65" fill="none" xmlns="http://www.w3.org/2000/svg">
<path d="M0 62.5839C5.99581 62.5839 11.4122 59.0045 13.7669 53.4895L22.4997 33.024L13.7217 30.6035L0 62.5839Z" fill="white"/>
<path d="M19.2701 45.6325L15.1318 55.2159L37.7302 48.3571L39.6781 52.8611C42.2301 58.7624 48.0451 62.5843 54.4765 62.5843L43.4835 38.6709L19.2701 45.6325Z" fill="white"/>
<path d="M14.6299 28.6517L42.7761 37.1584L38.9419 27.7764L26.4325 24.0449L26.9338 22.8655C30.0324 15.5587 30.0324 7.30676 26.9379 0L14.6299 28.6517Z" fill="white"/>
<path d="M75.6722 29.6064H75.4709L67.1929 48.6849C69.3482 48.6849 71.3023 47.3822 72.1312 45.3927L75.388 37.5766L78.2302 44.7887C79.1539 47.1454 81.4277 48.6849 83.962 48.6849L75.6722 29.6064Z" fill="white"/>
<path d="M83.8789 30.3291H92.7609C94.6912 30.3291 96.2545 31.8923 96.2545 33.8227H91.7898V45.0732C91.7898 47.0746 90.1673 48.6852 88.1778 48.6852V33.8227H87.3843C85.4421 33.8227 83.8789 32.2595 83.8789 30.3291Z" fill="white"/>
<path d="M99.7368 30.3291C101.738 30.3291 103.349 31.9516 103.349 33.9411V45.1916H108.489C110.419 45.1916 111.982 46.7548 111.982 48.6852H99.7368V30.3291Z" fill="white"/>
<path d="M122.131 29.6064H121.93L113.652 48.6849C115.807 48.6849 117.761 47.3822 118.59 45.3927L121.847 37.5766L124.689 44.7887C125.613 47.1454 127.887 48.6849 130.421 48.6849L122.131 29.6064Z" fill="white"/>
<path d="M145.97 30.3288L146.041 41.3899L133.227 29.6064H133.073V45.0137C133.073 47.0388 134.719 48.6849 136.744 48.6849L136.673 37.8371L149.511 49.431H149.606V33.9645C149.617 31.9631 147.983 30.3288 145.97 30.3288Z" fill="white"/>
<path d="M153.111 30.3291H161.993C163.923 30.3291 165.486 31.8923 165.486 33.8227H161.022V45.0732C161.022 47.0746 159.399 48.6852 157.41 48.6852V33.8227H156.616C154.674 33.8227 153.111 32.2595 153.111 30.3291Z" fill="white"/>
<path d="M70.746 61.475C70.3434 61.9842 69.6565 62.2566 68.9341 62.2566C67.4301 62.2566 66.4116 61.2855 66.4116 59.7933C66.4116 58.4196 67.4182 57.3301 68.8038 57.3301C69.5618 57.3301 70.225 57.5077 70.6631 57.9459L70.2723 58.6091C69.8697 58.2419 69.4078 58.1117 68.9223 58.1117C68.0696 58.1117 67.3117 58.7985 67.3117 59.7933C67.3117 60.8355 68.0814 61.475 69.0052 61.475C69.5736 61.475 70.0473 61.2263 70.3552 60.871L70.746 61.475Z" fill="white"/>
<path d="M73.7772 57.3418C75.2813 57.3418 76.2879 58.3958 76.2879 59.8051C76.2879 61.2144 75.2813 62.2683 73.7772 62.2683C72.2732 62.2683 71.2666 61.2144 71.2666 59.8051C71.2666 58.384 72.2732 57.3418 73.7772 57.3418ZM73.7772 61.4749C74.7247 61.4749 75.3997 60.7999 75.3997 59.7932C75.3997 58.8103 74.7128 58.1116 73.7772 58.1116C72.8535 58.1116 72.1548 58.7985 72.1548 59.7932C72.1548 60.788 72.8417 61.4749 73.7772 61.4749Z" fill="white"/>
<path d="M77.5083 57.4491H78.3491V58.0294C78.6689 57.6741 79.2728 57.3662 79.8887 57.3662C81.1203 57.3662 81.8545 57.9583 81.8545 59.4387V62.1625H81.0137V59.5926C81.0137 58.6097 80.5637 58.1478 79.6873 58.1478C79.1544 58.1478 78.657 58.4083 78.361 58.7518V62.1625H77.5201V57.4491H77.5083Z" fill="white"/>
<path d="M83.0977 58.6682C83.0977 57.8392 83.7727 57.3418 84.6964 57.3418C85.478 57.3418 86.0347 57.626 86.3189 57.8984L85.9162 58.5379C85.632 58.2892 85.2294 58.0761 84.732 58.0761C84.2583 58.0761 83.974 58.3485 83.974 58.6682C83.974 59.663 86.5202 59.1893 86.5202 60.8472C86.5202 61.842 85.6438 62.2683 84.6964 62.2683C83.9267 62.2683 83.1806 61.8657 82.9556 61.5341L83.4293 60.942C83.7017 61.2617 84.3175 61.5341 84.7912 61.5341C85.2294 61.5341 85.632 61.3091 85.632 60.8828C85.6439 59.9235 83.0977 60.3972 83.0977 58.6682Z" fill="white"/>
<path d="M87.6577 56.1338H88.4986V57.4483H90.2276V58.2299H88.4986V60.2787C88.4986 61.0248 88.7354 61.4511 89.3394 61.4511C89.6591 61.4511 89.9197 61.3209 90.0855 61.1906L90.346 61.8419C90.0973 62.0551 89.6591 62.2446 89.138 62.2446C88.084 62.2446 87.6577 61.5696 87.6577 60.3735V56.1338Z" fill="white"/>
<path d="M91.4707 57.4491H92.3115V58.0057C92.5484 57.6504 92.9037 57.3662 93.4958 57.3662C93.8866 57.3662 94.0761 57.4254 94.23 57.5438L93.934 58.3255C93.709 58.1834 93.5787 58.1478 93.2945 58.1478C92.7497 58.1478 92.4892 58.4676 92.3115 58.8228V62.1625H91.4707V57.4491Z" fill="white"/>
<path d="M99.1802 62.1616H98.3394V61.4865C98.0196 61.8892 97.4157 62.2682 96.6696 62.2682C95.6156 62.2682 94.9287 61.6405 94.9287 60.2549V57.4482H95.7695V60.0655C95.7695 60.9537 96.1248 61.4865 96.9893 61.4865C97.5341 61.4865 98.0433 61.1668 98.3394 60.7878V57.4601H99.1802V62.1616Z" fill="white"/>
<path d="M104.723 61.475C104.32 61.9842 103.634 62.2566 102.911 62.2566C101.407 62.2566 100.389 61.2855 100.389 59.7933C100.389 58.4196 101.395 57.3301 102.781 57.3301C103.539 57.3301 104.202 57.5077 104.64 57.9459L104.249 58.6091C103.847 58.2419 103.385 58.1117 102.899 58.1117C102.047 58.1117 101.289 58.7985 101.289 59.7933C101.289 60.8355 102.058 61.475 102.982 61.475C103.551 61.475 104.024 61.2263 104.332 60.871L104.723 61.475Z" fill="white"/>
<path d="M105.705 56.1338H106.546V57.4483H108.275V58.2299H106.546V60.2787C106.546 61.0248 106.783 61.4511 107.387 61.4511C107.706 61.4511 107.967 61.3209 108.133 61.1906L108.393 61.8419C108.145 62.0551 107.706 62.2446 107.185 62.2446C106.131 62.2446 105.705 61.5696 105.705 60.3735V56.1338Z" fill="white"/>
<path d="M110.182 55.1631C110.442 55.1631 110.691 55.3644 110.691 55.6605C110.691 56.0039 110.442 56.2052 110.182 56.2052C109.886 56.2052 109.637 56.0039 109.637 55.6605C109.637 55.3644 109.886 55.1631 110.182 55.1631ZM109.744 57.4487H110.585V62.1621H109.744V57.4487Z" fill="white"/>
<path d="M114.528 57.3418C116.032 57.3418 117.039 58.3958 117.039 59.8051C117.039 61.2144 116.032 62.2683 114.528 62.2683C113.024 62.2683 112.018 61.2144 112.018 59.8051C112.006 58.384 113.012 57.3418 114.528 57.3418ZM114.528 61.4749C115.476 61.4749 116.151 60.7999 116.151 59.7932C116.151 58.8103 115.464 58.1116 114.528 58.1116C113.605 58.1116 112.906 58.7985 112.906 59.7932C112.894 60.788 113.581 61.4749 114.528 61.4749Z" fill="white"/>
<path d="M118.246 57.4491H119.087V58.0294C119.407 57.6741 120.011 57.3662 120.626 57.3662C121.858 57.3662 122.592 57.9583 122.592 59.4387V62.1625H121.752V59.5926C121.752 58.6097 121.301 58.1478 120.425 58.1478C119.892 58.1478 119.395 58.4083 119.099 58.7518V62.1625H118.258V57.4491H118.246Z" fill="white"/>
<path d="M130.386 61.475C129.984 61.9842 129.297 62.2566 128.574 62.2566C127.07 62.2566 126.052 61.2855 126.052 59.7933C126.052 58.4196 127.058 57.3301 128.444 57.3301C129.202 57.3301 129.865 57.5077 130.303 57.9459L129.912 58.6091C129.51 58.2419 129.048 58.1117 128.562 58.1117C127.71 58.1117 126.952 58.7985 126.952 59.7933C126.952 60.8355 127.722 61.475 128.645 61.475C129.214 61.475 129.687 61.2263 129.995 60.871L130.386 61.475Z" fill="white"/>
<path d="M133.429 57.3418C134.933 57.3418 135.939 58.3958 135.939 59.8051C135.939 61.2144 134.933 62.2683 133.429 62.2683C131.925 62.2683 130.918 61.2144 130.918 59.8051C130.906 58.384 131.913 57.3418 133.429 57.3418ZM133.429 61.4749C134.376 61.4749 135.051 60.7999 135.051 59.7932C135.051 58.8103 134.364 58.1116 133.429 58.1116C132.505 58.1116 131.806 58.7985 131.806 59.7932C131.806 60.788 132.481 61.4749 133.429 61.4749Z" fill="white"/>
<path d="M144.147 62.1626H143.307V59.2967C143.307 58.5151 142.975 58.148 142.288 58.148C141.72 58.148 141.27 58.444 141.057 58.8348C141.068 58.9177 141.068 59.0598 141.068 59.1664V62.1626H140.228V59.119C140.228 58.5387 139.884 58.148 139.221 58.148C138.676 58.148 138.226 58.444 137.989 58.7874V62.1626H137.148V57.4493H137.989V58.0414C138.333 57.6269 138.949 57.3545 139.552 57.3545C140.287 57.3545 140.796 57.6742 140.974 58.1716C141.305 57.6861 141.921 57.3545 142.632 57.3545C143.496 57.3545 144.147 57.769 144.147 59.0598V62.1626Z" fill="white"/>
<path d="M145.567 57.4484H146.408V58.005C146.728 57.6261 147.367 57.3418 148.007 57.3418C149.345 57.3418 150.186 58.3366 150.186 59.734C150.186 61.167 149.215 62.2683 147.735 62.2683C147.237 62.2683 146.74 62.1618 146.408 61.9486V64.2697H145.567V57.4484ZM146.408 58.7748V61.1078C146.823 61.392 147.213 61.4749 147.664 61.4749C148.67 61.4749 149.298 60.7525 149.298 59.7577C149.298 58.7985 148.741 58.1234 147.77 58.1234C147.214 58.1234 146.704 58.4077 146.408 58.7748Z" fill="white"/>
<path d="M151.43 57.7682C151.844 57.5076 152.413 57.3418 153.005 57.3418C154.343 57.3418 154.817 58.0405 154.817 59.2722V62.1618H154.024V61.5578C153.739 61.9131 153.289 62.2447 152.52 62.2447C151.655 62.2447 151.075 61.6999 151.075 60.788C151.075 59.8288 151.844 59.284 152.851 59.284C153.218 59.284 153.716 59.3551 154.024 59.5919C154.024 58.7156 153.881 58.0997 152.958 58.0997C152.377 58.0997 152.034 58.2419 151.655 58.4432L151.43 57.7682ZM154.024 60.8709V60.2788C153.727 60.0656 153.372 59.959 152.97 59.959C152.472 59.959 151.963 60.1841 151.963 60.7407C151.963 61.1907 152.271 61.4867 152.816 61.4867C153.42 61.4749 153.775 61.1551 154.024 60.8709Z" fill="white"/>
<path d="M156.226 57.4491H157.067V58.0294C157.387 57.6741 157.991 57.3662 158.606 57.3662C159.838 57.3662 160.572 57.9583 160.572 59.4387V62.1625H159.731V59.5926C159.731 58.6097 159.281 58.1478 158.405 58.1478C157.872 58.1478 157.375 58.4083 157.079 58.7518V62.1625H156.238V57.4491H156.226Z" fill="white"/>
<path d="M164.375 62.1616C163.688 63.8551 163.238 64.2578 162.575 64.2578C162.219 64.2578 161.935 64.1275 161.686 63.9617L161.959 63.3222C162.113 63.3932 162.29 63.4761 162.48 63.4761C162.882 63.4761 163.167 63.1564 163.486 62.4103L163.593 62.1616L161.331 57.4482H162.338L163.723 60.4444C163.83 60.6813 163.913 60.9181 164.007 61.155C164.067 60.9299 164.15 60.6813 164.232 60.4326L165.322 57.4482H166.281L164.375 62.1616Z" fill="white"/>
</svg>
