<?xml version="1.0" standalone="no"?>
<!DOCTYPE svg PUBLIC "-//W3C//DTD SVG 20010904//EN"
 "http://www.w3.org/TR/2001/REC-SVG-20010904/DTD/svg10.dtd">
<svg version="1.0" xmlns="http://www.w3.org/2000/svg"
 width="191.000000pt" height="191.000000pt" viewBox="0 0 191.000000 191.000000"
 preserveAspectRatio="xMidYMid meet">
<metadata>
Created by potrace 1.14, written by Peter Selinger 2001-2017
</metadata>
<g transform="translate(0.000000,191.000000) scale(0.100000,-0.100000)"
fill="#000000" stroke="none">
<path d="M797 1568 c-81 -189 -147 -348 -147 -354 0 -10 670 -217 678 -209 3
2 -16 55 -41 117 l-45 113 -150 43 -149 44 24 69 c37 106 49 214 35 318 -11
82 -36 177 -52 194 -3 4 -72 -147 -153 -335z"/>
<path d="M606 1128 c-7 -18 -81 -191 -165 -384 -83 -193 -151 -355 -151 -359
0 -17 108 6 167 35 109 54 135 93 267 400 64 150 116 275 116 279 0 8 -179 61
-205 61 -8 0 -21 -15 -29 -32z"/>
<path d="M1060 886 c-157 -45 -290 -85 -296 -88 -12 -8 -109 -227 -102 -233 2
-2 122 32 266 75 144 44 266 80 271 80 5 0 29 -42 55 -94 72 -148 174 -226
320 -243 40 -5 48 -4 44 8 -22 53 -261 565 -266 570 -4 4 -135 -30 -292 -75z"/>
<path d="M572 223 c-18 -43 -32 -82 -32 -86 0 -18 43 17 52 44 11 31 28 39 28
14 0 -18 48 -70 57 -61 7 6 -58 166 -67 166 -3 0 -21 -35 -38 -77z"/>
<path d="M680 285 c0 -9 7 -18 15 -21 11 -5 15 -22 15 -63 0 -63 6 -77 27 -60
8 7 13 32 13 65 0 47 2 54 20 54 25 0 26 16 1 30 -31 16 -91 13 -91 -5z"/>
<path d="M810 215 l0 -85 56 0 c47 0 55 3 52 18 -2 11 -14 18 -36 20 -32 3
-32 4 -32 57 0 44 -4 56 -20 65 -19 10 -20 8 -20 -75z"/>
<path d="M966 226 c-20 -43 -36 -83 -36 -88 0 -18 40 14 57 45 l16 32 14 -32
c14 -35 53 -64 53 -40 0 8 -15 48 -34 88 l-34 74 -36 -79z"/>
<path d="M1090 234 c0 -64 12 -104 30 -104 6 0 10 18 10 40 0 22 4 40 8 40 4
0 26 -18 47 -40 21 -22 43 -40 47 -40 4 0 8 34 8 75 0 64 -3 76 -20 85 -19 10
-20 8 -20 -37 l0 -47 -48 47 c-26 26 -51 47 -55 47 -4 0 -7 -30 -7 -66z"/>
<path d="M1264 284 c3 -9 6 -18 6 -20 0 -2 7 -4 15 -4 11 0 15 -16 17 -67 3
-64 4 -66 21 -49 11 12 17 33 17 67 0 37 4 49 15 49 20 0 19 26 -1 34 -9 3
-34 6 -56 6 -32 0 -39 -3 -34 -16z"/>
<path d="M305 236 c-11 -8 -16 -19 -12 -30 5 -13 21 -16 84 -16 83 0 126 14
131 43 3 15 -7 17 -90 17 -64 0 -100 -4 -113 -14z"/>
<path d="M1400 238 c1 -35 19 -42 119 -46 86 -4 101 -2 101 11 0 36 -28 47
-126 47 -69 0 -94 -3 -94 -12z"/>
<path d="M709 55 c-1 -13 -3 -15 -6 -4 -3 12 -20 15 -86 15 -75 -1 -82 -3 -82
-21 0 -17 7 -20 52 -21 40 -1 53 2 56 15 4 14 5 14 6 -1 2 -24 108 -24 114 0
4 15 5 15 6 0 1 -11 9 -18 21 -18 15 0 20 6 19 28 l-1 27 -7 -25 c-7 -24 -7
-24 -13 -4 -4 16 -15 23 -42 26 -31 3 -36 1 -37 -17z m-139 -9 c0 -3 -4 -8
-10 -11 -5 -3 -10 -1 -10 4 0 6 5 11 10 11 6 0 10 -2 10 -4z m170 -6 c0 -5 -4
-10 -10 -10 -5 0 -10 5 -10 10 0 6 5 10 10 10 6 0 10 -4 10 -10z"/>
<path d="M843 69 c-14 -5 -23 -17 -23 -29 0 -16 6 -20 35 -20 28 0 33 3 29 18
-5 14 -4 14 6 -2 10 -15 14 -16 21 -5 6 10 9 11 9 2 0 -7 9 -13 20 -13 13 0
20 7 20 19 0 26 -17 36 -35 21 -12 -10 -15 -9 -16 6 0 11 -3 13 -6 7 -3 -9
-10 -10 -21 -4 -10 5 -27 5 -39 0z m17 -29 c0 -5 -4 -10 -9 -10 -6 0 -13 5
-16 10 -3 6 1 10 9 10 9 0 16 -4 16 -10z m90 0 c0 -5 -4 -10 -10 -10 -5 0 -10
5 -10 10 0 6 5 10 10 10 6 0 10 -4 10 -10z"/>
<path d="M971 43 c1 -17 3 -21 6 -10 2 9 8 17 13 17 5 0 11 -8 14 -17 3 -11 4
-8 3 7 -1 15 -9 26 -19 28 -14 3 -18 -3 -17 -25z"/>
<path d="M1040 60 c-26 -16 -2 -40 40 -40 37 0 41 2 38 22 -2 17 -10 23 -34
24 -18 1 -37 -2 -44 -6z m30 -14 c0 -3 -4 -8 -10 -11 -5 -3 -10 -1 -10 4 0 6
5 11 10 11 6 0 10 -2 10 -4z m40 0 c0 -3 -4 -8 -10 -11 -5 -3 -10 -1 -10 4 0
6 5 11 10 11 6 0 10 -2 10 -4z"/>
<path d="M1131 42 c0 -24 1 -25 9 -7 7 17 9 17 9 3 1 -10 6 -18 11 -18 6 0 10
8 11 18 0 14 2 14 9 -3 8 -18 9 -18 9 6 1 22 -3 26 -29 27 -26 1 -30 -3 -29
-26z"/>
<path d="M1200 33 c0 -26 3 -34 9 -24 5 8 23 14 40 13 26 -1 31 3 31 24 0 15
-6 24 -15 24 -8 0 -15 -8 -15 -17 -1 -17 -1 -17 -11 0 -18 31 -39 20 -39 -20z
m30 7 c0 -5 -4 -10 -10 -10 -5 0 -10 5 -10 10 0 6 5 10 10 10 6 0 10 -4 10
-10z"/>
<path d="M1291 42 c1 -17 3 -21 6 -9 2 9 9 17 14 17 5 0 9 -8 10 -17 0 -15 2
-15 9 2 9 21 15 7 10 -25 -3 -24 26 9 35 40 7 22 6 23 -9 11 -9 -7 -16 -9 -16
-4 0 6 -13 10 -30 11 -26 1 -30 -3 -29 -26z"/>
</g>
</svg>
