<svg width="96" height="96" viewBox="0 0 96 96" fill="none" xmlns="http://www.w3.org/2000/svg">
<g id="education 1">
<g id="education equipment calculator pencil ruler sketc">
<path id="Vector" d="M92.07 0.119965C91.7968 0.0050959 91.4957 -0.0262881 91.2047 0.0297731C90.9137 0.0858343 90.6459 0.226829 90.435 0.434965L57.795 33.075C57.5326 33.027 57.2666 33.0019 57 33H52.5V13.5C52.4986 13.2652 52.442 13.0339 52.335 12.825L46.335 0.824965C46.1963 0.594825 46.0006 0.404432 45.7666 0.272263C45.5327 0.140095 45.2686 0.0706399 45 0.0706399C44.7313 0.0706399 44.4672 0.140095 44.2333 0.272263C43.9994 0.404432 43.8036 0.594825 43.665 0.824965L37.665 12.825C37.5579 13.0339 37.5014 13.2652 37.5 13.5V33H31.5V13.5C31.4986 13.2652 31.442 13.0339 31.335 12.825L25.335 0.824965C25.1963 0.594825 25.0006 0.404432 24.7666 0.272263C24.5327 0.140095 24.2686 0.0706399 24 0.0706399C23.7313 0.0706399 23.4672 0.140095 23.2333 0.272263C22.9994 0.404432 22.8036 0.594825 22.665 0.824965L16.665 12.825C16.5579 13.0339 16.5014 13.2652 16.5 13.5V33C15.3076 33.0035 14.1651 33.4788 13.3219 34.3219C12.4788 35.1651 12.0035 36.3076 12 37.5V78.885L3.43497 87.435C3.22683 87.6459 3.08583 87.9137 3.02977 88.2047C2.97371 88.4957 3.0051 88.7968 3.11997 89.07C3.2303 89.3454 3.42086 89.5814 3.66693 89.7472C3.91301 89.913 4.20323 90.0011 4.49997 90H91.5C91.8978 90 92.2793 89.8419 92.5606 89.5606C92.8419 89.2793 93 88.8978 93 88.5V1.49996C93.0011 1.20323 92.913 0.913006 92.7472 0.666934C92.5814 0.420862 92.3454 0.230299 92.07 0.119965ZM45 4.85996L47.07 8.99996H42.93L45 4.85996ZM41.43 12H48.57L49.17 13.2L47.7 14.67L45.675 13.665C45.4672 13.5541 45.2354 13.4962 45 13.4962C44.7645 13.4962 44.5327 13.5541 44.325 13.665L42.3 14.67L40.83 13.2L41.43 12ZM40.5 17.115L40.935 17.565C41.1595 17.7876 41.4487 17.9337 41.7612 17.9821C42.0737 18.0306 42.3935 17.9791 42.675 17.835L45 16.68L47.325 17.835C47.5319 17.9474 47.7645 18.0042 48 18C48.3984 18.0011 48.7812 17.8448 49.065 17.565L49.5 17.115V33H40.5V17.115ZM24 4.85996L28.32 13.5H19.68L24 4.85996ZM19.5 16.5H28.5V33H19.5V16.5ZM15 37.5C15 37.1021 15.158 36.7206 15.4393 36.4393C15.7206 36.158 16.1021 36 16.5 36H57C57.3978 36 57.7793 36.158 58.0606 36.4393C58.3419 36.7206 58.5 37.1021 58.5 37.5V79.5C58.5 79.8978 58.3419 80.2793 58.0606 80.5606C57.7793 80.8419 57.3978 81 57 81H16.5C16.1021 81 15.7206 80.8419 15.4393 80.5606C15.158 80.2793 15 79.8978 15 79.5V37.5ZM90 12H85.5V15H90V19.5H82.5V22.5H90V27H85.5V30H90V34.5H85.5V37.5H90V42H82.5V45H90V49.5H85.5V52.5H90V57H85.5V60H90V64.5H82.5V67.5H90V72H85.5V75H90V79.5H85.5V82.5H90V87H8.11496L12.915 82.2C13.3331 82.7563 13.8743 83.2083 14.4963 83.5206C15.1182 83.8329 15.804 83.9969 16.5 84H57C58.1923 83.9964 59.3349 83.5211 60.178 82.678C61.0212 81.8349 61.4964 80.6923 61.5 79.5V75H78C78.3978 75 78.7793 74.8419 79.0606 74.5606C79.3419 74.2793 79.5 73.8978 79.5 73.5V36C79.499 35.7085 79.4132 35.4236 79.253 35.1802C79.0928 34.9367 78.8651 34.7452 78.5978 34.629C78.3305 34.5129 78.0351 34.4771 77.7478 34.5261C77.4605 34.5751 77.1937 34.7068 76.98 34.905L61.5 49.23V37.5C61.4942 36.4635 61.1283 35.4613 60.465 34.665L90 5.11496V12ZM61.5 72V53.325L76.5 39.435V72H61.5Z" fill="#242A78"/>
<path id="Vector_2" d="M19.5 52.5H54C54.3978 52.5 54.7794 52.342 55.0607 52.0607C55.342 51.7794 55.5 51.3978 55.5 51V40.5C55.5 40.1022 55.342 39.7206 55.0607 39.4393C54.7794 39.158 54.3978 39 54 39H19.5C19.1022 39 18.7206 39.158 18.4393 39.4393C18.158 39.7206 18 40.1022 18 40.5V51C18 51.3978 18.158 51.7794 18.4393 52.0607C18.7206 52.342 19.1022 52.5 19.5 52.5ZM21 42H52.5V49.5H21V42Z" fill="#242A78"/>
<path id="Vector_3" d="M19.5 66H27C27.3978 66 27.7794 65.842 28.0607 65.5607C28.342 65.2794 28.5 64.8978 28.5 64.5V57C28.5 56.6022 28.342 56.2206 28.0607 55.9393C27.7794 55.658 27.3978 55.5 27 55.5H19.5C19.1022 55.5 18.7206 55.658 18.4393 55.9393C18.158 56.2206 18 56.6022 18 57V64.5C18 64.8978 18.158 65.2794 18.4393 65.5607C18.7206 65.842 19.1022 66 19.5 66ZM21 58.5H25.5V63H21V58.5Z" fill="#242A78"/>
<path id="Vector_4" d="M40.5 55.5H33C32.6022 55.5 32.2206 55.658 31.9393 55.9393C31.658 56.2206 31.5 56.6022 31.5 57V64.5C31.5 64.8978 31.658 65.2794 31.9393 65.5607C32.2206 65.842 32.6022 66 33 66H40.5C40.8978 66 41.2794 65.842 41.5607 65.5607C41.842 65.2794 42 64.8978 42 64.5V57C42 56.6022 41.842 56.2206 41.5607 55.9393C41.2794 55.658 40.8978 55.5 40.5 55.5ZM39 63H34.5V58.5H39V63Z" fill="#242A78"/>
<path id="Vector_5" d="M19.5 78H27C27.3978 78 27.7794 77.842 28.0607 77.5607C28.342 77.2794 28.5 76.8978 28.5 76.5V69C28.5 68.6022 28.342 68.2206 28.0607 67.9393C27.7794 67.658 27.3978 67.5 27 67.5H19.5C19.1022 67.5 18.7206 67.658 18.4393 67.9393C18.158 68.2206 18 68.6022 18 69V76.5C18 76.8978 18.158 77.2794 18.4393 77.5607C18.7206 77.842 19.1022 78 19.5 78ZM21 70.5H25.5V75H21V70.5Z" fill="#242A78"/>
<path id="Vector_6" d="M40.5 67.5H33C32.6022 67.5 32.2206 67.658 31.9393 67.9393C31.658 68.2206 31.5 68.6022 31.5 69V76.5C31.5 76.8978 31.658 77.2794 31.9393 77.5607C32.2206 77.842 32.6022 78 33 78H40.5C40.8978 78 41.2794 77.842 41.5607 77.5607C41.842 77.2794 42 76.8978 42 76.5V69C42 68.6022 41.842 68.2206 41.5607 67.9393C41.2794 67.658 40.8978 67.5 40.5 67.5ZM39 75H34.5V70.5H39V75Z" fill="#242A78"/>
<path id="Vector_7" d="M54 55.5H46.5C46.1022 55.5 45.7206 55.658 45.4393 55.9393C45.158 56.2206 45 56.6022 45 57V76.5C45 76.8978 45.158 77.2794 45.4393 77.5607C45.7206 77.842 46.1022 78 46.5 78H54C54.3978 78 54.7794 77.842 55.0607 77.5607C55.342 77.2794 55.5 76.8978 55.5 76.5V57C55.5 56.6022 55.342 56.2206 55.0607 55.9393C54.7794 55.658 54.3978 55.5 54 55.5ZM52.5 75H48V58.5H52.5V75Z" fill="#242A78"/>
<path id="Vector_8" d="M49.5 45H46.5V48H49.5V45Z" fill="#242A78"/>
<path id="Vector_9" d="M43.5 45H40.5V48H43.5V45Z" fill="#242A78"/>
</g>
</g>
</svg>
