<svg width="96" height="96" viewBox="0 0 96 96" fill="none" xmlns="http://www.w3.org/2000/svg">
<g id="hook 1" clip-path="url(#clip0_245_83)">
<path id="Vector" d="M27.2 54.3999H30.4V57.5999H27.2V54.3999Z" fill="#242A78"/>
<path id="Vector_2" d="M33.5999 54.3997H36.7999V57.5997H33.5999V54.3997Z" fill="#242A78"/>
<path id="Vector_3" d="M39.9998 54.3997H43.1998V57.5997H39.9998V54.3997Z" fill="#242A78"/>
<path id="Vector_4" d="M27.2 60.8H30.4V64H27.2V60.8Z" fill="#242A78"/>
<path id="Vector_5" d="M33.5999 60.8H36.7999V64H33.5999V60.8Z" fill="#242A78"/>
<path id="Vector_6" d="M39.9998 60.8H43.1998V64H39.9998V60.8Z" fill="#242A78"/>
<path id="Vector_7" d="M46.3997 60.8H49.5996V64H46.3997V60.8Z" fill="#242A78"/>
<path id="Vector_8" d="M52.7996 60.8H55.9996V64H52.7996V60.8Z" fill="#242A78"/>
<path id="Vector_9" d="M27.2 67.2H30.4V70.4H27.2V67.2Z" fill="#242A78"/>
<path id="Vector_10" d="M33.5999 67.1997H36.7999V70.3997H33.5999V67.1997Z" fill="#242A78"/>
<path id="Vector_11" d="M39.9998 67.1997H43.1998V70.3997H39.9998V67.1997Z" fill="#242A78"/>
<path id="Vector_12" d="M46.3997 67.1997H49.5996V70.3997H46.3997V67.1997Z" fill="#242A78"/>
<path id="Vector_13" d="M52.7996 67.1997H55.9996V70.3997H52.7996V67.1997Z" fill="#242A78"/>
<path id="Vector_14" d="M27.2 73.6001H30.4V76.8001H27.2V73.6001Z" fill="#242A78"/>
<path id="Vector_15" d="M33.5999 73.5999H36.7999V76.7999H33.5999V73.5999Z" fill="#242A78"/>
<path id="Vector_16" d="M39.9998 73.5999H43.1998V76.7999H39.9998V73.5999Z" fill="#242A78"/>
<path id="Vector_17" d="M46.3997 73.5999H49.5996V76.7999H46.3997V73.5999Z" fill="#242A78"/>
<path id="Vector_18" d="M52.7996 73.5999H55.9996V76.7999H52.7996V73.5999Z" fill="#242A78"/>
<path id="Vector_19" d="M27.1997 79.9995H30.3997V83.1995H27.1997V79.9995Z" fill="#242A78"/>
<path id="Vector_20" d="M33.5999 79.9995H36.7999V83.1995H33.5999V79.9995Z" fill="#242A78"/>
<path id="Vector_21" d="M39.9998 79.9995H43.1998V83.1995H39.9998V79.9995Z" fill="#242A78"/>
<path id="Vector_22" d="M46.3997 79.9995H49.5996V83.1995H46.3997V79.9995Z" fill="#242A78"/>
<path id="Vector_23" d="M52.7996 79.9995H55.9996V83.1995H52.7996V79.9995Z" fill="#242A78"/>
<path id="Vector_24" d="M27.1997 86.3999H30.3997V89.5999H27.1997V86.3999Z" fill="#242A78"/>
<path id="Vector_25" d="M33.5999 86.3999H36.7999V89.5999H33.5999V86.3999Z" fill="#242A78"/>
<path id="Vector_26" d="M39.9998 86.3999H43.1998V89.5999H39.9998V86.3999Z" fill="#242A78"/>
<path id="Vector_27" d="M46.3997 86.3999H49.5996V89.5999H46.3997V86.3999Z" fill="#242A78"/>
<path id="Vector_28" d="M52.7996 86.3999H55.9996V89.5999H52.7996V86.3999Z" fill="#242A78"/>
<path id="Vector_29" d="M94.3993 4.80021H83.1994V1.60023C83.1994 0.716645 82.483 0.000244141 81.5994 0.000244141H65.5995C64.7159 0.000244141 63.9995 0.716645 63.9995 1.60023V4.80021H1.59999C0.716401 4.80021 0 5.51661 0 6.4002V12.8002C0 13.6845 0.716401 14.4001 1.59999 14.4001H6.39995V44.7999C6.39995 45.6843 7.11635 46.3999 7.99994 46.3999C8.88353 46.3999 9.59993 47.1163 9.59993 47.9999C9.59993 48.8843 8.88353 49.5999 7.99994 49.5999C7.11635 49.5999 6.39995 48.8843 6.39995 47.9999H3.19998C3.20466 49.171 3.63982 50.2999 4.42419 51.1702L0.32031 56.6405L0.340622 56.6561C0.126561 56.9248 0.00703119 57.2569 0 57.5998V63.9998C0 64.4248 0.168749 64.831 0.468747 65.131L3.66872 68.331C3.96872 68.631 4.37575 68.7998 4.79996 68.7998H11.1999C11.6241 68.7998 12.0312 68.631 12.3312 68.331L15.5311 65.131C15.8311 64.831 15.9999 64.4248 15.9999 63.9998V57.5998C15.9929 57.2569 15.8733 56.9248 15.6593 56.6561L15.6796 56.6405L11.5757 51.1702C12.6444 49.9827 13.0476 48.339 12.6499 46.7921C12.253 45.2452 11.1077 43.9999 9.59993 43.4742V14.4001H63.9995V16.0001C63.9995 16.8845 64.7159 17.6001 65.5995 17.6001H68.7995V92.7996H62.3995V28.8H59.1996V35.2H49.5996V32H46.3997V35.2H36.7997V33.6H33.5998V35.2H23.9998V30.4H44.7997V27.2001H23.9998V20.8001H20.7998V92.7996H18.2624L10.7312 85.2692C10.1062 84.6442 9.09368 84.6442 8.46869 85.2692L0.937493 92.7996H0V95.9996H95.9993V92.7996H94.7516C95.8774 91.5707 96.2774 89.841 95.8055 88.2418C95.3344 86.6434 94.0602 85.4074 92.447 84.9856C93.2602 82.9801 92.6321 80.6794 90.9118 79.3661C89.1923 78.0528 86.8064 78.0528 85.0869 79.3661C83.3666 80.6794 82.7384 82.9801 83.5517 84.9856C81.9385 85.4074 80.6642 86.6434 80.1932 88.2418C79.7213 89.841 80.1213 91.5707 81.2471 92.7996H78.3994V17.6001H81.5994C82.483 17.6001 83.1994 16.8845 83.1994 16.0001V14.4001H94.3993C95.2829 14.4001 95.9993 13.6845 95.9993 12.8002V6.4002C95.9993 5.51661 95.2829 4.80021 94.3993 4.80021ZM8.79993 52.7999L11.1999 55.9998H4.79996L7.19995 52.7999H8.79993ZM12.7999 63.3381L10.5374 65.5998H5.46246L3.19998 63.3381V59.1998H12.7999V63.3381ZM87.5197 8.00019L83.1994 10.8806V8.00019H87.5197ZM67.1995 3.20022H73.5994V9.60018H67.1995V3.20022ZM23.9998 8.3205L28.3201 11.2002H19.6795L23.9998 8.3205ZM14.3999 10.8806L10.0796 8.00019H18.7202L14.3999 10.8806ZM29.2795 8.00019H37.92L33.5998 10.8806L29.2795 8.00019ZM43.1997 8.3205L47.52 11.2002H38.8794L43.1997 8.3205ZM48.4793 8.00019H57.1199L52.7996 10.8806L48.4793 8.00019ZM3.19998 8.00019H4.32028L9.12024 11.2002H3.19998V8.00019ZM58.0793 11.2002L62.8792 8.00019H63.9995V11.2002H58.0793ZM75.1994 87.5199L72.3198 83.1997L75.1994 78.8801V87.5199ZM75.1994 49.1202L72.3198 44.7999L75.1994 40.4804V49.1202ZM71.9995 50.0804L74.8791 54.3999L71.9995 58.7201V50.0804ZM71.9995 39.5203V30.8805L74.8791 35.2L71.9995 39.5203ZM71.9995 69.2802L74.8791 73.5997L71.9995 77.92V69.2802ZM75.1994 68.3107L72.3198 63.9998L75.1994 59.6803V68.3107ZM72.3198 25.6001L75.1994 21.2806V29.9203L72.3198 25.6001ZM71.9995 20.3204V17.6001H73.8104L71.9995 20.3204ZM59.1996 38.4V54.3999H49.5996V38.4H59.1996ZM46.3997 38.4V52.16L42.72 48.5233C42.4216 48.2288 42.0192 48.0624 41.5997 48.0608H36.7997V38.4H46.3997ZM33.5998 38.4V41.0671H23.9998V38.4H33.5998ZM9.59993 88.6621L13.7374 92.7996H5.46246L9.59993 88.6621ZM23.9998 92.7996V44.2671H33.5998V49.6671C33.5998 50.5514 34.3162 51.2671 35.1997 51.2671H40.9419L46.8793 57.1381C47.1778 57.4326 47.5801 57.5991 47.9996 57.5998H59.1996V92.7996H23.9998ZM71.9995 88.4801L74.8791 92.7996H71.9995V88.4801ZM91.1993 91.1996C90.3157 91.1996 89.5993 90.484 89.5993 89.5996C89.5993 88.716 90.3157 87.9996 91.1993 87.9996C92.0829 87.9996 92.7993 88.716 92.7993 89.5996C92.7993 90.484 92.0829 91.1996 91.1993 91.1996ZM87.9993 81.5997C88.8829 81.5997 89.5993 82.3161 89.5993 83.1997C89.5993 84.084 88.8829 84.7996 87.9993 84.7996C87.1158 84.7996 86.3994 84.084 86.3994 83.1997C86.3994 82.3161 87.1158 81.5997 87.9993 81.5997ZM84.7994 87.9996C85.683 87.9996 86.3994 88.716 86.3994 89.5996C86.3994 90.484 85.683 91.1996 84.7994 91.1996C83.9158 91.1996 83.1994 90.484 83.1994 89.5996C83.1994 88.716 83.9158 87.9996 84.7994 87.9996ZM79.9994 14.4001H67.1995V12.8002H75.1994C76.083 12.8002 76.7994 12.0845 76.7994 11.2002V3.20022H79.9994V14.4001ZM88.479 11.2002L92.7993 8.3205V11.2002H88.479Z" fill="#242A78"/>
</g>
<defs>
<clipPath id="clip0_245_83">
<rect width="96" height="96" fill="white"/>
</clipPath>
</defs>
</svg>
