<svg width="96" height="96" viewBox="0 0 96 96" fill="none" xmlns="http://www.w3.org/2000/svg">
<g id="building 1">
<g id="Group">
<g id="Group_2">
<path id="Vector" d="M92.8 44V20.4464L70.4 12.9792V44H67.2V8.8H28.8V44H25.6V24.8H22.4V13.6H16V4H12.8V13.6H6.4V24.8H3.2V44H0V88.8H28.8V92H67.2V88.8H96V44H92.8ZM9.6 16.8H19.2V24.8H9.6V16.8ZM6.4 28H22.4V44H6.4V28ZM28.8 85.6H3.2V47.2H28.8V85.6ZM51.2 88.8H44.8V72.8H51.2V88.8ZM64 88.8H54.4V69.6H41.6V88.8H32V12H64V88.8ZM73.6 17.4208L89.6 22.7536V44H86.4V24.8H83.2V44H80V24.8H76.8V44H73.6V17.4208ZM83.2 85.6H76.8V79.2H83.2V85.6ZM92.8 85.6H86.4V76H73.6V85.6H67.2V47.2H92.8V85.6Z" fill="#242A78"/>
</g>
</g>
<g id="Group_3">
<g id="Group_4">
<path id="Vector_2" d="M25.5999 50.3999H6.3999V53.5999H25.5999V50.3999Z" fill="#242A78"/>
</g>
</g>
<g id="Group_5">
<g id="Group_6">
<path id="Vector_3" d="M25.5999 56.8H6.3999V60.0001H25.5999V56.8Z" fill="#242A78"/>
</g>
</g>
<g id="Group_7">
<g id="Group_8">
<path id="Vector_4" d="M25.5999 63.2H6.3999V66.3999H25.5999V63.2Z" fill="#242A78"/>
</g>
</g>
<g id="Group_9">
<g id="Group_10">
<path id="Vector_5" d="M25.5999 69.6001H6.3999V72.8001H25.5999V69.6001Z" fill="#242A78"/>
</g>
</g>
<g id="Group_11">
<g id="Group_12">
<path id="Vector_6" d="M36.8 18.3999V27.9999H46.4V18.3999H36.8ZM43.2 24.7999H40V21.5999H43.2V24.7999Z" fill="#242A78"/>
</g>
</g>
<g id="Group_13">
<g id="Group_14">
<path id="Vector_7" d="M49.6001 18.3999V27.9999H59.2001V18.3999H49.6001ZM56.0001 24.7999H52.8001V21.5999H56.0001V24.7999Z" fill="#242A78"/>
</g>
</g>
<g id="Group_15">
<g id="Group_16">
<path id="Vector_8" d="M36.8 31.2V40.8H46.4V31.2H36.8ZM43.2 37.6H40V34.4H43.2V37.6Z" fill="#242A78"/>
</g>
</g>
<g id="Group_17">
<g id="Group_18">
<path id="Vector_9" d="M49.6001 31.2V40.8H59.2001V31.2H49.6001ZM56.0001 37.6H52.8001V34.4H56.0001V37.6Z" fill="#242A78"/>
</g>
</g>
<g id="Group_19">
<g id="Group_20">
<path id="Vector_10" d="M36.8 44V53.6H46.4V44H36.8ZM43.2 50.4H40V47.2H43.2V50.4Z" fill="#242A78"/>
</g>
</g>
<g id="Group_21">
<g id="Group_22">
<path id="Vector_11" d="M49.6001 44V53.6H59.2001V44H49.6001ZM56.0001 50.4H52.8001V47.2H56.0001V50.4Z" fill="#242A78"/>
</g>
</g>
<g id="Group_23">
<g id="Group_24">
<path id="Vector_12" d="M36.8 56.8V66.4001H46.4V56.8H36.8ZM43.2 63.2001H40V60.0001H43.2V63.2001Z" fill="#242A78"/>
</g>
</g>
<g id="Group_25">
<g id="Group_26">
<path id="Vector_13" d="M49.6001 56.8V66.4001H59.2001V56.8H49.6001ZM56.0001 63.2001H52.8001V60.0001H56.0001V63.2001Z" fill="#242A78"/>
</g>
</g>
<g id="Group_27">
<g id="Group_28">
<path id="Vector_14" d="M73.5999 50.3999H70.3999V53.5999H73.5999V50.3999Z" fill="#242A78"/>
</g>
</g>
<g id="Group_29">
<g id="Group_30">
<path id="Vector_15" d="M83.2 50.3999H76.8V53.5999H83.2V50.3999Z" fill="#242A78"/>
</g>
</g>
<g id="Group_31">
<g id="Group_32">
<path id="Vector_16" d="M89.5999 50.3999H86.3999V53.5999H89.5999V50.3999Z" fill="#242A78"/>
</g>
</g>
<g id="Group_33">
<g id="Group_34">
<path id="Vector_17" d="M73.5999 56.8H70.3999V60.0001H73.5999V56.8Z" fill="#242A78"/>
</g>
</g>
<g id="Group_35">
<g id="Group_36">
<path id="Vector_18" d="M83.2 56.8H76.8V60.0001H83.2V56.8Z" fill="#242A78"/>
</g>
</g>
<g id="Group_37">
<g id="Group_38">
<path id="Vector_19" d="M89.5999 56.8H86.3999V60.0001H89.5999V56.8Z" fill="#242A78"/>
</g>
</g>
<g id="Group_39">
<g id="Group_40">
<path id="Vector_20" d="M73.5999 63.2H70.3999V66.3999H73.5999V63.2Z" fill="#242A78"/>
</g>
</g>
<g id="Group_41">
<g id="Group_42">
<path id="Vector_21" d="M83.2 63.2H76.8V66.3999H83.2V63.2Z" fill="#242A78"/>
</g>
</g>
<g id="Group_43">
<g id="Group_44">
<path id="Vector_22" d="M89.5999 63.2H86.3999V66.3999H89.5999V63.2Z" fill="#242A78"/>
</g>
</g>
<g id="Group_45">
<g id="Group_46">
<path id="Vector_23" d="M73.5999 69.6001H70.3999V72.8001H73.5999V69.6001Z" fill="#242A78"/>
</g>
</g>
<g id="Group_47">
<g id="Group_48">
<path id="Vector_24" d="M83.2 69.6001H76.8V72.8001H83.2V69.6001Z" fill="#242A78"/>
</g>
</g>
<g id="Group_49">
<g id="Group_50">
<path id="Vector_25" d="M89.5999 69.6001H86.3999V72.8001H89.5999V69.6001Z" fill="#242A78"/>
</g>
</g>
</g>
</svg>
