<svg width="96" height="96" viewBox="0 0 96 96" fill="none" xmlns="http://www.w3.org/2000/svg">
<g id="checklist 1" clip-path="url(#clip0_245_219)">
<path id="Vector" d="M96 53.4103C96 49.5378 92.8503 46.3866 88.9778 46.3866C87.1028 46.3866 85.3397 47.1177 84.0121 48.4446L77.4193 55.0373V0H16.3911L0 16.3911V96H77.4193V74.9002L93.9435 58.376C95.2689 57.0507 96 55.2868 96 53.4103ZM58.06 80.3135L62.089 84.3425L56.4496 85.9884L58.06 80.3135ZM65.0323 82.9052L63.3523 81.2253L85.4584 59.1177L87.1399 60.7991L65.0323 82.9052ZM61.1613 79.0358L59.4798 77.3543L81.589 55.2467L83.2704 56.9282L61.1613 79.0358ZM15.4839 5.28629V15.4839H5.28629L15.4839 5.28629ZM74.3226 92.9032H3.09677V18.5806H18.5806V3.09677H74.3226V58.1341L55.9105 76.5446L51.939 90.5292L65.8465 86.473L74.3226 77.997V92.9032ZM91.754 56.1865L89.3309 58.6096L83.7785 53.0572L86.2016 50.6341C86.9433 49.8924 87.9299 49.4834 88.9778 49.4834C91.1409 49.4834 92.9032 51.2457 92.9032 53.4103C92.9032 54.4597 92.4942 55.4463 91.754 56.1865Z" fill="#242A78"/>
<path id="Vector_2" d="M31.3698 63.9905L24.706 71.3219C22.741 69.3509 20.0268 68.1291 17.0321 68.1291C11.057 68.1291 6.19336 72.9927 6.19336 78.9678C6.19336 84.9428 11.057 89.8065 17.0321 89.8065C23.0071 89.8065 27.8708 84.9428 27.8708 78.9678C27.8708 77.1208 27.4051 75.3819 26.5855 73.8584L33.6621 66.0741L31.3698 63.9905ZM24.774 78.9678C24.774 83.2364 21.3007 86.7097 17.0321 86.7097C12.7634 86.7097 9.29013 83.2364 9.29013 78.9678C9.29013 74.6991 12.7634 71.2259 17.0321 71.2259C19.2261 71.2259 21.2002 72.1535 22.611 73.6256L16.7826 80.0376L13.2465 77.681L11.5288 80.2576L17.2831 84.0946L24.2969 76.3791C24.5865 77.1918 24.774 78.0545 24.774 78.9678Z" fill="#242A78"/>
<path id="Vector_3" d="M24.706 43.4508C22.741 41.4798 20.0268 40.258 17.0321 40.258C11.057 40.258 6.19336 45.1217 6.19336 51.0967C6.19336 57.0718 11.057 61.9354 17.0321 61.9354C23.0071 61.9354 27.8708 57.0718 27.8708 51.0967C27.8708 49.2497 27.4051 47.5108 26.5855 45.9873L33.6621 38.2031L31.3698 36.1194L24.706 43.4508ZM24.774 51.0967C24.774 55.3654 21.3007 58.8386 17.0321 58.8386C12.7634 58.8386 9.29013 55.3654 9.29013 51.0967C9.29013 46.8281 12.7634 43.3548 17.0321 43.3548C19.2261 43.3548 21.2002 44.2824 22.611 45.7545L16.7826 52.1665L13.2465 49.8099L11.5288 52.3865L17.2831 56.2235L24.2969 48.508C24.5865 49.3207 24.774 50.1834 24.774 51.0967Z" fill="#242A78"/>
<path id="Vector_4" d="M68.1289 49.5483H71.2257V52.6451H68.1289V49.5483Z" fill="#242A78"/>
<path id="Vector_5" d="M34.0645 49.5483H65.0322V52.6451H34.0645V49.5483Z" fill="#242A78"/>
<path id="Vector_6" d="M34.0645 43.3547H71.2257V46.4515H34.0645V43.3547Z" fill="#242A78"/>
<path id="Vector_7" d="M34.0645 55.7419H71.2257V58.8387H34.0645V55.7419Z" fill="#242A78"/>
<path id="Vector_8" d="M34.0645 77.4194H51.0967V80.5162H34.0645V77.4194Z" fill="#242A78"/>
<path id="Vector_9" d="M34.0645 83.6128H51.0967V86.7096H34.0645V83.6128Z" fill="#242A78"/>
<path id="Vector_10" d="M34.0645 71.2258H51.0967V74.3226H34.0645V71.2258Z" fill="#242A78"/>
<path id="Vector_11" d="M29.4192 34.0646H63.4837C67.7523 34.0646 71.2256 30.5913 71.2256 26.3226V13.9355C71.2256 9.66689 67.7523 6.1936 63.4837 6.1936H29.4192C25.1505 6.1936 21.6772 9.66689 21.6772 13.9355V26.3226C21.6772 30.5913 25.1505 34.0646 29.4192 34.0646ZM24.774 13.9355C24.774 11.3748 26.8584 9.29038 29.4192 9.29038H63.4837C66.0444 9.29038 68.1289 11.3748 68.1289 13.9355V26.3226C68.1289 28.8834 66.0444 30.9678 63.4837 30.9678H29.4192C26.8584 30.9678 24.774 28.8834 24.774 26.3226V13.9355Z" fill="#242A78"/>
<path id="Vector_12" d="M65.032 15.4839H55.7417V24.7742H65.032V15.4839ZM61.9352 21.6774H58.8385V18.5807H61.9352V21.6774Z" fill="#242A78"/>
<path id="Vector_13" d="M51.097 15.4839H41.8066V24.7742H51.097V15.4839ZM48.0002 21.6774H44.9034V18.5807H48.0002V21.6774Z" fill="#242A78"/>
<path id="Vector_14" d="M37.1614 15.4839H27.8711V24.7742H37.1614V15.4839ZM34.0646 21.6774H30.9679V18.5807H34.0646V21.6774Z" fill="#242A78"/>
</g>
<defs>
<clipPath id="clip0_245_219">
<rect width="96" height="96" fill="white"/>
</clipPath>
</defs>
</svg>
